<?xml version="1.0" encoding="utf-8"?>
<!-- Generator: Adobe Illustrator 16.0.0, SVG Export Plug-In . SVG Version: 6.00 Build 0)  -->
<!DOCTYPE svg PUBLIC "-//W3C//DTD SVG 1.1//EN" "http://www.w3.org/Graphics/SVG/1.1/DTD/svg11.dtd">
<svg version="1.1" id="Layer_1" xmlns="http://www.w3.org/2000/svg" xmlns:xlink="http://www.w3.org/1999/xlink" x="0px" y="0px"
	 width="40px" height="40px" viewBox="0 0 40 40" enable-background="new 0 0 40 40" xml:space="preserve">
<g id="icon_x5F_bg">
	<path fill="#339933" d="M20,5c8.272,0,15,6.73,15,15c0,8.272-6.728,15-15,15S5,28.272,5,20S11.728,5,20,5 M20,2.5
		C10.335,2.5,2.5,10.335,2.5,20S10.335,37.5,20,37.5S37.5,29.665,37.5,20S29.665,2.5,20,2.5z"/>
	<path fill="#339933" d="M17.5,25L15,20h-5l5,10h5l10-20h-5L17.5,25z"/>
</g>
<path id="icon_x5F_fg" fill="#F6F6F6" d="M20,5C11.716,5,5,11.716,5,20s6.716,15,15,15s15-6.716,15-15S28.284,5,20,5z M20,30h-5
	l-5-10h5l2.5,5L25,10h5L20,30z"/>
</svg>
