<?xml version="1.0" encoding="utf-8"?>
<!-- Generator: Adobe Illustrator 16.0.0, SVG Export Plug-In . SVG Version: 6.00 Build 0)  -->
<!DOCTYPE svg PUBLIC "-//W3C//DTD SVG 1.1//EN" "http://www.w3.org/Graphics/SVG/1.1/DTD/svg11.dtd">
<svg version="1.1" id="Layer_1" xmlns="http://www.w3.org/2000/svg" xmlns:xlink="http://www.w3.org/1999/xlink" x="0px" y="0px"
	 width="40px" height="40px" viewBox="0 0 40 40" enable-background="new 0 0 40 40" xml:space="preserve">
<title>WindowsApplicationPackagingProject_16x</title>
<path fill="#F6F6F6" d="M40,0H0v17.5h1.16L0,18.66v7.072l2.5,2.5V40H25v-7.5h15V0z"/>
<path fill="#F0EFF1" d="M35,10v17.5h-9.268l5.303-5.303L25,16.16V15H5v-5H35z"/>
<path fill="#424242" d="M37.5,2.5V30H25v-1.768l0.732-0.732H35V10H5v5H2.5V2.5H37.5z"/>
<path fill="#B38E5E" d="M5,37.5V25h17.5v12.5H5z"/>
<path fill="#BB8849" d="M5,27.197l-5-5l3.535-3.537L5,20.125V17.5h17.5v2.625l1.465-1.465l3.535,3.537l-5,5V25H5V27.197z"/>
<path fill="#DCB67A" d="M20,35H7.5V25H20V35z M20,20H7.5v2.5H20V20z"/>
</svg>
