<?xml version="1.0" encoding="utf-8"?>
<!-- Generator: Adobe Illustrator 16.0.0, SVG Export Plug-In . SVG Version: 6.00 Build 0)  -->
<!DOCTYPE svg PUBLIC "-//W3C//DTD SVG 1.1//EN" "http://www.w3.org/Graphics/SVG/1.1/DTD/svg11.dtd">
<svg version="1.1" id="Layer_1" xmlns="http://www.w3.org/2000/svg" xmlns:xlink="http://www.w3.org/1999/xlink" x="0px" y="0px"
	 width="40px" height="40px" viewBox="0 0 40 40" enable-background="new 0 0 40 40" xml:space="preserve">
<g id="outline">
	<path fill="#F6F6F6" d="M40,7.5v15c0,4.277-5.373,7.5-12.5,7.5c-0.95,0-1.862-0.064-2.742-0.175l-0.12,0.938l-1.955,0.478
		l-0.886,0.109l1.746,2.24l-1.19,1.535c-0.646,0.83-1.393,1.58-2.225,2.228l-1.535,1.192l-2.242-1.748L16,39.605l-1.925,0.25
		C13.397,39.947,12.96,40,12.5,40s-0.897-0.053-1.337-0.115l-1.925-0.247L8.76,37.68l-0.11-0.883l-2.242,1.746L4.87,37.35
		c-0.833-0.646-1.58-1.396-2.225-2.227l-1.188-1.535l1.743-2.24L0.395,31l-0.25-1.922C0.053,28.397,0,27.96,0,27.5
		s0.053-0.897,0.115-1.338l0.247-1.922l1.955-0.478l0.885-0.112l-1.745-2.242l1.19-1.536c0.645-0.828,1.393-1.575,2.225-2.223
		l1.535-1.192l2.24,1.748L9,15.39l2.185-0.278C11.615,15.053,12.05,15,12.5,15s0.885,0.053,1.315,0.112L15,15.263V7.5
		C15,3.223,20.373,0,27.5,0C34.627,0,40,3.223,40,7.5z"/>
</g>
<g id="iconBg">
	<path fill="#303030" d="M22.373,28.76c0.055-0.418,0.127-0.827,0.127-1.26s-0.072-0.842-0.127-1.26l-3.088-0.385
		c-0.17-0.713-0.455-1.378-0.828-1.988l1.917-2.463c-0.518-0.667-1.112-1.262-1.78-1.779l-2.463,1.918
		c-0.607-0.373-1.275-0.655-1.99-0.828l-0.383-3.087c-0.417-0.052-0.827-0.127-1.26-0.127s-0.842,0.075-1.26,0.127l-0.383,3.087
		c-0.715,0.173-1.382,0.455-1.99,0.828l-2.463-1.918c-0.667,0.518-1.262,1.112-1.78,1.779l1.92,2.463
		c-0.373,0.61-0.657,1.275-0.828,1.988L2.63,26.24C2.572,26.658,2.5,27.067,2.5,27.5s0.072,0.842,0.127,1.26l3.087,0.385
		c0.17,0.713,0.455,1.378,0.828,1.988l-1.917,2.463c0.518,0.67,1.112,1.264,1.78,1.781l2.463-1.92
		c0.607,0.371,1.275,0.655,1.99,0.828l0.383,3.088c0.417,0.055,0.827,0.127,1.26,0.127s0.842-0.072,1.26-0.127l0.383-3.088
		c0.715-0.173,1.382-0.457,1.99-0.828l2.463,1.92c0.667-0.518,1.262-1.111,1.78-1.781l-1.92-2.461
		c0.373-0.609,0.657-1.275,0.828-1.987L22.373,28.76z M12.5,32.5c-2.76,0-5-2.24-5-5s2.24-5,5-5s5,2.24,5,5S15.26,32.5,12.5,32.5z
		 M15,27.5c0,1.383-1.12,2.5-2.5,2.5S10,28.883,10,27.5s1.12-2.5,2.5-2.5S15,26.117,15,27.5z"/>
</g>
<g id="iconFg">
	<path fill="#F6F6F6" d="M12.5,22.5c-2.76,0-5,2.24-5,5s2.24,5,5,5s5-2.24,5-5S15.26,22.5,12.5,22.5z M12.5,30
		c-1.38,0-2.5-1.117-2.5-2.5s1.12-2.5,2.5-2.5s2.5,1.117,2.5,2.5S13.88,30,12.5,30z M35.813,7.5c0,1.317-3.314,3.313-8.313,3.313
		S19.188,8.817,19.188,7.5s3.314-3.313,8.313-3.313S35.813,6.183,35.813,7.5z"/>
</g>
<g id="colorImportance">
	<path fill="#2C3E50" d="M27.5,2.5c-5.522,0-10,2.24-10,5v9.81l1.095-0.853l1.535,1.192c0.833,0.647,1.58,1.395,2.226,2.223
		l1.189,1.536l-1.748,2.242L24.605,24l0.25,1.922c0.08,0.596,0.125,1,0.137,1.403c0.803,0.103,1.635,0.175,2.508,0.175
		c5.522,0,10-2.24,10-5v-15C37.5,4.74,33.022,2.5,27.5,2.5z M27.5,10.813c-4.998,0-8.313-1.995-8.313-3.313s3.314-3.313,8.313-3.313
		s8.313,1.995,8.313,3.313S32.498,10.813,27.5,10.813z"/>
</g>
</svg>
