<?xml version="1.0" encoding="utf-8"?>
<!-- Generator: Adobe Illustrator 16.0.0, SVG Export Plug-In . SVG Version: 6.00 Build 0)  -->
<!DOCTYPE svg PUBLIC "-//W3C//DTD SVG 1.1//EN" "http://www.w3.org/Graphics/SVG/1.1/DTD/svg11.dtd">
<svg version="1.1" id="Layer_1" xmlns="http://www.w3.org/2000/svg" xmlns:xlink="http://www.w3.org/1999/xlink" x="0px" y="0px"
	 width="40px" height="40px" viewBox="0 0 40 40" enable-background="new 0 0 40 40" xml:space="preserve">
<path id="outline" fill="#F6F6F6" d="M40,10v30H0V10h0.4l9.813-10h2.1l9.817,10H40z"/>
<path id="colorAction" fill="#00539C" d="M19.495,10.885l-1.768,1.768l-5.21-5.21v12.555h-2.502V7.442l-5.21,5.21l-1.768-1.768
	L11.265,2.5L19.495,10.885z"/>
<path id="colorImportance" fill="#DCB67A" d="M20,27.162l-4.982-4.982v-8.702l2.71,2.71l2.282-2.28l1.405-1.408h13.25L25,22.162
	v0.018l-4.982,4.982l-0.008-0.008L20,27.162z M22.467,30h-4.934l-7.5-7.5l-0.003-0.002H7.518v-2.513L2.5,14.967V37.5h35V14.967
	L22.467,30z"/>
</svg>
