<?xml version="1.0" encoding="utf-8"?>
<!-- Generator: Adobe Illustrator 16.0.0, SVG Export Plug-In . SVG Version: 6.00 Build 0)  -->
<!DOCTYPE svg PUBLIC "-//W3C//DTD SVG 1.1//EN" "http://www.w3.org/Graphics/SVG/1.1/DTD/svg11.dtd">
<svg version="1.1" id="Layer_1" xmlns="http://www.w3.org/2000/svg" xmlns:xlink="http://www.w3.org/1999/xlink" x="0px" y="0px"
	 width="40px" height="40px" viewBox="0 0 40 40" enable-background="new 0 0 40 40" xml:space="preserve">
<g id="outline">
	<path fill="#F6F6F6" d="M39.998,17.5v15c0,4.277-5.371,7.5-12.498,7.5C20.373,40,15,36.777,15,32.5V25H9.502
		C3.998,23.883,0,18.925,0,13.283C0,11.215,0.538,9.235,1.513,7.5H0V5l3.75-5h11.748c4.987,1.013,8.703,5.185,9.365,10.158
		C25.707,10.055,26.59,10,27.5,10C34.627,10,39.998,13.225,39.998,17.5z"/>
</g>
<g id="iconBg">
	<path fill="#303030" d="M10,11.25V7.5c-2.862,0.647-5,3.192-5,6.25c0,3.06,2.138,5.605,5,6.25v2.5c-4.28-0.867-7.5-4.68-7.5-9.217
		C2.5,9.67,4.555,6.565,7.55,5h-3.8l2.5-2.5h6.25v6.25L10,11.25z M21.25,20h-3.8c2.995-1.565,5.05-4.67,5.05-8.28
		c0-4.54-3.22-8.353-7.5-9.22V5c2.862,0.645,5,3.19,5,6.25c0,3.058-2.138,5.603-5,6.25v-3.75l-2.5,2.5v6.25h6.25L21.25,20z"/>
</g>
<g id="iconFg">
	<path fill="#F6F6F6" d="M35.813,17.5c0,1.317-3.314,3.313-8.313,3.313c-1.18,0-2.252-0.117-3.223-0.305l3.008-3.008h-3.801
		c0.538-0.955,0.928-1.99,1.184-3.067c0.872-0.145,1.807-0.245,2.832-0.245C32.498,14.188,35.813,16.183,35.813,17.5z"/>
</g>
<g id="colorImportance">
	<path fill="#2C3E50" d="M37.5,17.5V25v7.5c0,2.76-4.478,5-10,5s-10-2.24-10-5V25h2.285l4.492-4.492
		c0.971,0.188,2.043,0.305,3.223,0.305c4.998,0,8.313-1.995,8.313-3.313s-3.314-3.313-8.313-3.313c-1.025,0-1.96,0.1-2.832,0.245
		c0.135-0.57,0.22-1.153,0.268-1.745c0.822-0.11,1.672-0.188,2.564-0.188c3.002,0,5.668,0.678,7.5,1.723
		C36.537,15.103,37.5,16.24,37.5,17.5z"/>
</g>
</svg>
