<?xml version="1.0" encoding="utf-8"?>
<!-- Generator: Adobe Illustrator 16.0.0, SVG Export Plug-In . SVG Version: 6.00 Build 0)  -->
<!DOCTYPE svg PUBLIC "-//W3C//DTD SVG 1.1//EN" "http://www.w3.org/Graphics/SVG/1.1/DTD/svg11.dtd">
<svg version="1.1" id="Layer_1" xmlns="http://www.w3.org/2000/svg" xmlns:xlink="http://www.w3.org/1999/xlink" x="0px" y="0px"
	 width="40px" height="40px" viewBox="0 0 40 40" enable-background="new 0 0 40 40" xml:space="preserve">
<path id="outline" fill="#F6F6F6" d="M37.49,11.25v20c0,2.067-1.683,3.75-3.75,3.75H21.022c-1.842,2.975-5.232,5-9.147,5
	c-1.503,0.002-2.992-0.301-4.375-0.891V40H0V6.25C0,4.183,1.683,2.5,3.75,2.5h20.275l2.5,5h7.215
	C35.808,7.5,37.49,9.183,37.49,11.25L37.49,11.25z"/>
<g id="icon_x5F_bg">
	<path fill="#2C3E50" d="M33.74,10h-8.76l-2.5-5H3.75C3.06,5,2.5,5.56,2.5,6.25v14.883c2.063-2.32,5.021-3.643,8.125-3.633
		c1.538,0,3.022,0.313,4.375,0.89V17.5h7.5V30c0,0.867-0.154,1.695-0.377,2.5H33.74c0.689,0,1.25-0.56,1.25-1.25v-20
		C34.99,10.56,34.43,10,33.74,10z M5,10V7.5h15.936l1.25,2.5H5z"/>
	<path fill="#303030" d="M20,20v7.5h-7.5V25h2.967c-0.975-1.487-2.77-2.5-4.842-2.5c-3.1,0-5.625,2.242-5.625,5H2.5
		c0-4.135,3.645-7.5,8.125-7.5c2.905,0,5.438,1.425,6.875,3.547V20H20z M11.875,35c-2.072,0-3.868-1.013-4.842-2.5H10V30H2.5v7.5H5
		v-3.547c1.438,2.122,3.97,3.547,6.875,3.547C16.355,37.5,20,34.135,20,30h-2.5C17.5,32.758,14.975,35,11.875,35z"/>
</g>
<path id="icon_x5F_fg" fill="#F6F6F6" d="M5,7.5h15.936l1.25,2.5H5V7.5z"/>
</svg>
